<svg width="145" height="190" viewBox="0 0 145 190" fill="none" xmlns="http://www.w3.org/2000/svg">
<rect x="1" y="1" width="143" height="188" rx="4" stroke="black" stroke-width="2"/>
<rect x="14.5" y="14.5" width="53" height="5" rx="0.5" stroke="black"/>
<rect x="14.5" y="24.5" width="31" height="5" rx="0.5" stroke="black"/>
<rect x="14.5" y="48.5" width="116" height="5" rx="0.5" stroke="black"/>
<rect x="14.5" y="58.5" width="116" height="5" rx="0.5" stroke="black"/>
<rect x="14.5" y="68.5" width="116" height="5" rx="0.5" stroke="black"/>
<rect x="14.5" y="78.5" width="116" height="5" rx="0.5" stroke="black"/>
<rect x="14.5" y="98.5" width="48" height="5" rx="0.5" stroke="black"/>
<rect x="29.5" y="108.5" width="48" height="5" rx="0.5" stroke="black"/>
<rect x="19.5" y="108.5" width="5" height="5" rx="2.5" stroke="black"/>
<rect x="29.5" y="118.5" width="48" height="5" rx="0.5" stroke="black"/>
<rect x="19.5" y="118.5" width="5" height="5" rx="2.5" stroke="black"/>
<rect x="29.5" y="128.5" width="48" height="5" rx="0.5" stroke="black"/>
<rect x="19.5" y="128.5" width="5" height="5" rx="2.5" stroke="black"/>
<rect x="14.5" y="141.5" width="48" height="5" rx="0.5" stroke="black"/>
<rect x="29.5" y="151.5" width="48" height="5" rx="0.5" stroke="black"/>
<rect x="19.5" y="151.5" width="5" height="5" rx="2.5" stroke="black"/>
<rect x="29.5" y="161.5" width="48" height="5" rx="0.5" stroke="black"/>
<rect x="19.5" y="161.5" width="5" height="5" rx="2.5" stroke="black"/>
<rect x="29.5" y="171.5" width="48" height="5" rx="0.5" stroke="black"/>
<rect x="19.5" y="171.5" width="5" height="5" rx="2.5" stroke="black"/>
</svg>
