<svg width="145" height="190" viewBox="0 0 145 190" fill="none" xmlns="http://www.w3.org/2000/svg">
<rect x="1" y="1" width="143" height="188" rx="4" stroke="black" stroke-width="2"/>
<rect x="14" y="14" width="54" height="6" rx="1" fill="#E61A4D"/>
<rect x="14" y="24" width="32" height="6" rx="1" fill="#E61A4D"/>
<rect x="14" y="48" width="117" height="6" rx="1" fill="#043A74"/>
<rect x="14" y="58" width="117" height="6" rx="1" fill="#043A74"/>
<rect x="14" y="68" width="117" height="6" rx="1" fill="#043A74"/>
<rect x="14" y="78" width="117" height="6" rx="1" fill="#043A74"/>
<rect x="14" y="98" width="49" height="6" rx="1" fill="#043A74"/>
<rect x="29" y="108" width="49" height="6" rx="1" fill="#043A74"/>
<rect x="19" y="108" width="6" height="6" rx="3" fill="#043A74"/>
<rect x="29" y="118" width="49" height="6" rx="1" fill="#043A74"/>
<rect x="19" y="118" width="6" height="6" rx="3" fill="#043A74"/>
<rect x="29" y="128" width="49" height="6" rx="1" fill="#043A74"/>
<rect x="19" y="128" width="6" height="6" rx="3" fill="#043A74"/>
<rect x="14" y="141" width="49" height="6" rx="1" fill="#043A74"/>
<rect x="29" y="151" width="49" height="6" rx="1" fill="#043A74"/>
<rect x="19" y="151" width="6" height="6" rx="3" fill="#043A74"/>
<rect x="29" y="161" width="49" height="6" rx="1" fill="#043A74"/>
<rect x="19" y="161" width="6" height="6" rx="3" fill="#043A74"/>
<rect x="29" y="171" width="49" height="6" rx="1" fill="#043A74"/>
<rect x="19" y="171" width="6" height="6" rx="3" fill="#043A74"/>
</svg>
