<svg width="946" height="689" viewBox="0 0 946 689" fill="none" xmlns="http://www.w3.org/2000/svg">
<path d="M475.179 501.825C419.098 605.002 289.994 643.18 186.818 587.098C83.6412 531.017 45.4633 401.913 101.545 298.736C157.626 195.56 286.73 157.382 389.907 213.464C493.083 269.545 531.261 398.649 475.179 501.825Z" fill="url(#paint0_linear)" fill-opacity="0.8"/>
<path d="M454.015 267.737C446.009 135.882 546.409 22.5021 678.264 14.4962C810.119 6.49036 923.498 106.89 931.504 238.745C939.51 370.6 839.11 483.979 707.256 491.985C575.401 499.991 462.021 399.592 454.015 267.737Z" fill="url(#paint1_linear)"/>
<path d="M664.306 304.376C694.361 390.172 649.174 484.086 563.379 514.14C477.584 544.195 383.669 499.008 353.615 413.213C323.561 327.418 368.747 233.503 454.542 203.449C540.338 173.395 634.252 218.581 664.306 304.376Z" fill="url(#paint2_linear)"/>
<defs>
<linearGradient id="paint0_linear" x1="166.994" y1="669.725" x2="-38.1437" y2="424.045" gradientUnits="userSpaceOnUse">
<stop offset="0.0235403" stop-color="#FF3366"/>
<stop offset="1" stop-color="#C4C4C4" stop-opacity="0"/>
</linearGradient>
<linearGradient id="paint1_linear" x1="439.519" y1="357.762" x2="990.061" y2="35.9379" gradientUnits="userSpaceOnUse">
<stop offset="0.0235403" stop-color="#043A74"/>
<stop offset="1" stop-color="#C4C4C4" stop-opacity="0"/>
</linearGradient>
<linearGradient id="paint2_linear" x1="405.308" y1="477.509" x2="528.613" y2="244.405" gradientUnits="userSpaceOnUse">
<stop offset="0.0235403" stop-color="#FFCC4D"/>
<stop offset="1" stop-color="#C4C4C4" stop-opacity="0"/>
</linearGradient>
</defs>
</svg>
